<svg xmlns="http://www.w3.org/2000/svg" xmlns:xlink="http://www.w3.org/1999/xlink" aria-hidden="true" role="img" class="iconify iconify--openmoji" width="32" height="32" preserveAspectRatio="xMidYMid meet" viewBox="0 0 72 72"><path fill="#fff" d="M5 17h62v38H5z"></path><path fill="#d22f27" d="M5 17h62v5H5zm0 9h62v4H5zm0 8h62v4H5z"></path><path fill="#1e50a0" d="M5 17h32v21H5z"></path><path fill="#d22f27" d="M5 42h62v4H5z"></path><circle cx="9.5" cy="22" r="1.75" fill="#fff"></circle><circle cx="17.5" cy="22" r="1.75" fill="#fff"></circle><circle cx="25.5" cy="22" r="1.75" fill="#fff"></circle><circle cx="33.5" cy="22" r="1.75" fill="#fff"></circle><circle cx="29.5" cy="26" r="1.75" fill="#fff"></circle><circle cx="21.5" cy="26" r="1.75" fill="#fff"></circle><circle cx="13.5" cy="26" r="1.75" fill="#fff"></circle><circle cx="9.5" cy="30" r="1.75" fill="#fff"></circle><circle cx="17.5" cy="30" r="1.75" fill="#fff"></circle><circle cx="25.5" cy="30" r="1.75" fill="#fff"></circle><circle cx="33.5" cy="30" r="1.75" fill="#fff"></circle><circle cx="29.5" cy="34" r="1.75" fill="#fff"></circle><circle cx="21.5" cy="34" r="1.75" fill="#fff"></circle><circle cx="13.5" cy="34" r="1.75" fill="#fff"></circle><path fill="#d22f27" d="M5 50h62v5H5z"></path><path fill="none" stroke="#000" stroke-linecap="round" stroke-linejoin="round" stroke-width="2" d="M5 17h62v38H5z"></path></svg>