<?xml version="1.0" encoding="UTF-8"?><svg id="a" xmlns="http://www.w3.org/2000/svg" viewBox="0 0 1121 1112"><defs><style>.c,.d{fill:#fff;}.d{font-family:ArialMT, Arial;font-size:161.27px;}.d,.e{isolation:isolate;}.f{fill:none;stroke:#fff;stroke-width:5px;}.f,.g{stroke-miterlimit:10;}.g{fill:#c39a72;stroke:#c39a72;stroke-width:3px;}</style></defs><g id="b"><circle class="g" cx="567.5" cy="552.5" r="457"/><path class="f" d="M707.87,486.76c-4.24,1.03-8.7,1.6-13.3,1.6-15.78,0-29.88-6.49-39.2-16.67-3.72,.64-7.56,.98-11.48,.98-33.88,0-61.35-24.78-61.35-55.36,0-2.14,.15-4.24,.41-6.31-69.55,3.16-124.96,60.54-124.96,130.87s58.65,131.01,131.01,131.01,131.01-58.65,131.01-131.01c0-19.69-4.35-38.35-12.13-55.11h-.01Zm-205.14,72.64c-2.29,0-4.15-1.86-4.15-4.15s1.86-4.15,4.15-4.15,4.15,1.86,4.15,4.15-1.86,4.15-4.15,4.15Zm21.68-60.89c0-13.25,10.74-23.99,23.99-23.99s23.99,10.74,23.99,23.99-10.74,23.99-23.99,23.99-23.99-10.74-23.99-23.99Zm53.51,115.33c-13.25,0-23.99-10.74-23.99-23.99s10.74-23.99,23.99-23.99,23.99,10.74,23.99,23.99-10.74,23.99-23.99,23.99Zm50.28-54.43c-4.84,0-8.76-3.92-8.76-8.76s3.92-8.76,8.76-8.76,8.76,3.92,8.76,8.76-3.92,8.76-8.76,8.76Zm14.3,55.36c-3.06,0-5.54-2.48-5.54-5.54s2.48-5.54,5.54-5.54,5.54,2.48,5.54,5.54-2.48,5.54-5.54,5.54Zm28.6-83.03c-2.55,0-4.61-2.07-4.61-4.61s2.07-4.61,4.61-4.61,4.61,2.07,4.61,4.61-2.07,4.61-4.61,4.61Z"/><g><path class="c" d="M307.31,337.3c8.2,7.43,14.63,13.03,18.17,15.48,2.45,1.69,4.47,2.63,6.71,.71,1.05-.9,2.64-2.36,3.23-3.01,.39-.43,.74-.38,.96-.19,.36,.32,.25,.87-.47,1.66-3.59,3.95-7.77,8.47-8.08,8.84s-3.98,5.32-5.78,7.63c-.66,.85-1.11,1.12-1.57,.77-.23-.18-.34-.51,.02-.97,.54-.7,1.11-1.76,1.51-2.56,.88-1.77-.46-3.53-2.51-5.69-2.97-3.12-9.53-8.58-17.89-15.82-12.1-10.52-24.1-21.17-36.45-31.4-3.6,4.62-7.23,9.38-10.6,14.17-4.26,6.06-5.28,8.9-4.26,11.99,.74,2.15,1.16,2.93,1.59,3.64,.48,.8,.49,1.23,.23,1.63-.19,.29-.59,.3-1.12-.08-.88-.64-7-7.89-7.48-8.54-.37-.51-1.16-1.7-.89-2.1,.48-.71,1.96-1.2,4-3.71,2.19-2.7,5.12-6.3,5.98-7.47,9.2-12.02,18.79-23.42,29.05-34.56,2.65-2.78,4.43-4.95,5.58-6.46,1.07-1.41,1.68-2.39,2.02-2.73,.43-.42,.86,0,1.29,.43,2.16,2.16,7.09,7.7,7.93,8.56,.69,.71,.75,1.27,.42,1.6-.41,.41-.89,.33-1.97-.69-.31-.29-.62-.46-.93-.78-2.54-2.08-6.37-1.88-14.29,6.33-3.47,3.59-6.8,7.32-10.14,11.06,12.11,10.53,23.88,21.45,35.75,32.25h0Z"/><path class="c" d="M328.75,297.52c-10.25-11.64-12.04-13.65-14.25-15.78s-3.84-2.89-5.92-1.58c-.99,.62-1.6,1.17-2.18,1.57-.67,.46-1.16,.63-1.46,.31-.38-.4-.19-.88,.75-1.76,2.64-2.46,7.78-6.63,8.04-6.86,.35-.31,5.21-4.97,7.69-7.05,.89-.74,1.47-.94,1.83-.52,.28,.34,.13,.73-.48,1.41-.46,.51-.9,.9-1.45,1.51-2.27,2.5-1.43,3.99,.51,6.65,1.81,2.47,3.57,4.37,13.57,16.25,4.54,5.4,6.83,8.12,11.26,13.35,5.7,6.71,10.52,12.41,13.32,14.86,2.25,1.97,3.25,2.5,5.56,1.34,1.16-.58,2.79-1.82,3.08-2.03,.67-.48,1.01-.44,1.26-.15s.14,.75-.6,1.36c-3.78,3.08-8.19,6.52-8.55,6.84-.22,.19-4.26,4.17-6.24,6-.64,.59-1.26,.91-1.6,.57-.27-.28-.19-.75,.45-1.34,.35-.33,1.07-1.13,1.51-1.78,.93-1.39-.2-3.01-1.63-5.01-2.14-3-7.23-8.65-12.92-15.05-4.55-5.12-6.89-7.79-11.55-13.08v-.03Z"/><path class="c" d="M431.39,267.82c1.4,2.18,4.44,7.02,8.09,6.29,1.6-.31,3.42-.88,4.57-1.35,.33-.13,1.13-.4,1.33,.04,.2,.44-.01,.85-.93,1.27-1.5,.68-10.68,4.66-13.4,5.77-1.87,.76-2.66,.92-2.89,.49-.14-.26,0-.78,.33-1.17,.32-.39,.02-1.57-.8-2.74-8.9-13.71-17.67-27.5-26.62-41.18,1.4,17.75,3.37,35.4,5.49,53.08,.52,4.29,.73,5.1,0,5.54-.48,.29-1.33-.15-4.71-2.08-2.88-1.64-19.25-12.01-20.24-12.56-8.01-4.43-16.52-10.17-24.79-15.23,7.43,12.7,14.94,25.34,22.58,37.91,.79,1.23,1.35,1.97,2.26,3.18,.67,.89,1.97,1.79,3.74,.99,.97-.44,1.52-.85,2.36-1.3,.67-.36,1.01-.23,1.13-.07,.4,.55-.01,.95-.87,1.55-2.49,1.75-5.97,3.93-6.58,4.38-.77,.57-3.79,3.19-5.68,4.65-.68,.53-1.19,.81-1.62,.28-.12-.15-.07-.69,.61-1.22,.53-.41,.61-.48,1.38-1.19,1.69-1.55,.96-3.87-1.19-7.45-10.89-18.01-21.3-36.3-31.55-54.68-.93-1.66-1.07-2.64-.6-2.97,.47-.34,.94-.28,2.43,.42,19.64,10.23,38.11,22.01,56.6,34.18-2.81-21.69-5.2-43.28-6.12-65.14-.07-1.34,.02-2.14,.62-2.44,.6-.31,1.35,.41,2.27,1.95,11.3,16.7,22,33.79,32.82,50.81h-.02Z"/><path class="c" d="M419.52,212.69c-.32,1.4-.76,1.99-1.15,2.16-.79,.36-.62-1.61-.57-2.01,.47-5.49,.14-11.67-1.93-16.34-2.29-5.14-4.39-5.67-6.27-6.19-.68-.11-.56-.69,.06-.97,2.2-.99,5.84-1.88,7.55-1.87,1.85,0,2.65,.43,3.32,1.99,2.62,6.15,.7,16.52-1.02,23.21v.02Z"/><path class="c" d="M462.75,265.24c-1.31-.12-1.45-.46-2.34-2.71-1.72-4.32-2.88-7.9-3.32-9.34-.29-.93-.31-1.53,.13-1.7s.74,.07,1.02,.79c.24,.61,.72,1.83,1.45,2.93,3.68,6.06,9.49,6.33,14.39,4.63,7.02-2.43,8.67-8.83,7-14-1.91-5.89-5.36-9.11-14.31-13.37-1.94-.88-2.92-1.31-4.89-2.17-11.93-5.45-16.32-10.59-18.93-16.96-4.14-10.14,2.27-20.04,12.15-23.18,3.49-1.11,6.09-1.61,8.47-1.8,2.05-.16,2.92-.32,3.63-.53,.72-.22,.99-.06,1.12,.36,.13,.43,.88,4.26,2.9,10.73,.52,1.67,.54,2.41,.04,2.56s-.75-.28-1.08-1.02c-.42-.96-1.35-3.25-2.85-4.84-.81-.83-4.49-4.31-12.87-1.47-5.99,2.03-9.08,7.48-6.59,14.06,1.95,5.15,5.61,7.42,15.88,11.89,1.15,.52,1.72,.78,2.86,1.31,12.8,5.82,16.95,11.3,19.26,18.86,1.17,3.83,1.8,10.71-2.1,16.27-2.55,3.38-6.26,5.58-10.28,6.99-3.52,1.24-6.94,2.02-10.75,1.71h0Z"/><path class="c" d="M530.86,238.38c-9.83-7.68-15.19-19.58-17.51-31.62-2.21-11.46-.85-23.79,5.82-33.64,7.92-11.06,20.44-14.19,32.58-15.92,4.34-.62,10.97-.71,16.57-.15,4.35,.44,7.87,.57,12.07,.94,.79,.08,1.02,.49,1.02,1.12,0,.85-.34,2.1-.58,6.11-.22,3.68-.25,10.14-.36,11.93-.11,1.79-.33,2.52-.97,2.55-.75,.02-.86-.82-.86-2.49-.01-4.65-1.79-9.28-4.71-11.59-3.94-3.12-12.76-5.46-22.67-4.45-14.97,1.53-21.35,6.82-24.62,11.15-6.85,9.17-6.53,21.22-4.55,31.85,3.5,18.71,17.69,38.73,38.92,37.45,6.64-.4,11.8-1.31,15.37-5.71,1.87-2.36,3.05-7.27,3.34-9.32,.18-1.25,.37-1.73,.93-1.73,.47,0,.65,.81,.65,1.72,0,.8-1.14,10.42-2.02,13.87-.53,1.93-.71,2.1-2.28,2.9-3.51,1.59-10.17,2.35-15.69,2.73-10.61,.73-21.83-.98-30.44-7.71h-.01Z"/><path class="c" d="M587.8,207.82c.6-21.52,16.63-40.99,39.47-39.15,23.56,1.89,33.82,22.96,29.01,44.48-4.19,18.77-18.24,36.65-39.3,34.3-20.13-2.25-29.7-21.02-29.18-39.62h0Zm58.82,6.73c3.74-15.54,.28-40.55-20.46-42.34-18.48-1.59-29.32,15.9-29.04,32.53,.26,15.61,2.59,37.41,22.47,39.65,17.57,1.98,23.84-16.6,27.02-29.84h.01Z"/><path class="c" d="M661.55,215.99c4.79-19.36,23.75-39.18,45.62-31.18,21.85,7.98,27.87,31.23,19.12,51.52-7.6,17.63-24.42,32.46-44.54,25.72-19.74-6.61-24.71-27.86-20.2-46.05h0Zm55.15,19.58c6.59-14.72,8.38-40.58-11.28-47.45-19.5-6.82-30.51,12.44-34.24,26.71-3.72,14.27-5.61,38.23,13.72,44.77,16.8,5.68,26.31-11.76,31.79-24.03h.01Z"/><path class="c" d="M748.28,245.46c10.05-4.06,20.3-7.85,30.35-11.61,7.89-2.95,8.68-3.19,9.4-4.33,.46-.73,.41-1.49-.48-2.62-.54-.63-.79-1.07-.54-1.48,.19-.31,.57-.5,1.33,0,.57,.36,3.24,2.48,6.27,4.47,2.84,1.87,8.2,5.09,9.42,5.94,1.31,.91,1.35,1.24,1.07,1.64-.28,.4-.81,.51-1.58,.08-1.53-.86-3.79-1.88-5.25-2.14-2.79-.71-4.78-.52-12.78,1.46-10.56,2.67-20.78,6.4-30.92,10.37,1.74,13.46,2.95,26.96,4.43,40.45,1.19,9.73,2.54,12.79,4.79,15.68,.65,.76,.36,.41,1.42,1.49,.56,.57,.79,1.01,.49,1.4-.24,.31-.69,.19-1.45-.4-1.79-1.41-2.69-2.11-4.49-3.48-5.43-4.12-6.61-5.87-7.73-10.18-3.56-13.64-3.93-29.35-5.2-43.93-1.9,3.66-2.84,5.48-4.68,9.02-4.48,8.64-8.23,15.69-9.62,19.32-1.12,2.92-1.3,4.03,.37,5.69,.84,.83,2.39,1.85,2.65,2.03,.61,.42,.67,.75,.49,1.1-.19,.34-.62,.42-1.37-.03-3.78-2.27-8.03-4.96-8.41-5.17-.23-.13-4.84-2.29-7-3.4-.69-.36-1.15-.8-.95-1.25,.16-.35,.6-.47,1.3-.11,.39,.2,1.28,.54,1.98,.69,1.47,.31,2.57-1.36,3.93-3.53,2.04-3.25,5.63-10.55,9.77-19.07,3.31-6.81,5.06-10.4,8.51-17.5,7.59-15.62,8.88-18.27,10.16-21.41,1.28-3.13,1.47-5.06-.37-6.54-.88-.71-1.57-1.07-2.11-1.46-.62-.45-.93-.86-.73-1.3,.25-.54,.75-.57,1.84-.03,3.07,1.52,8.52,4.76,8.82,4.92,.39,.21,6.24,2.94,8.97,4.48,.98,.55,1.35,1.03,1.06,1.56-.23,.42-.65,.44-1.47,.14-.62-.23-1.12-.49-1.86-.76-3.04-1.14-4.16,.33-6.03,3.43-1.74,2.89-2.95,5.46-10.96,20.89-1.14,2.2-1.71,3.3-2.85,5.49h0Z"/><path class="c" d="M798.49,271.39c10.89-13.99,12.74-16.36,14.67-19.22,1.93-2.85,2.5-4.72,.9-6.55-.76-.87-1.4-1.37-1.88-1.86-.55-.57-.79-1.04-.5-1.43,.36-.49,.88-.41,1.89,.34,2.85,2.11,7.8,6.39,8.07,6.6,.36,.28,5.81,4.14,8.3,6.19,.89,.73,1.17,1.29,.77,1.75-.32,.37-.75,.31-1.53-.15-.59-.35-1.05-.71-1.75-1.12-2.89-1.72-4.33-.5-6.86,2.22-2.36,2.53-4.12,4.83-15.43,18.58-5.14,6.25-7.74,9.41-12.67,15.4-6.32,7.69-11.54,13.91-13.67,17.21-1.72,2.66-2.12,3.71-.78,5.72,.67,1,2.03,2.33,2.27,2.57,.53,.55,.53,.89,.27,1.19s-.71,.28-1.37-.32c-3.36-3.05-7.07-6.6-7.41-6.88-.2-.17-4.38-3.27-6.29-4.8-.62-.49-.98-1.03-.69-1.42,.23-.32,.69-.34,1.31,.16,.34,.28,1.17,.8,1.83,1.09,1.4,.61,2.84-.81,4.64-2.67,2.7-2.79,7.79-9.3,13.72-16.92,4.74-6.1,7.25-9.31,12.2-15.67h-.01Z"/><path class="c" d="M825.4,294.76c12.51-12.86,14.65-15.06,16.92-17.72,2.36-2.76,3-4.56,1.04-7.36-.43-.56-1.2-1.42-1.88-2.03-.6-.54-.86-1.27-.61-1.54,.5-.54,1.1-.34,1.97,.43,1.72,1.55,3.89,3.89,8.51,8.37,.41,.4,15.02,15.09,16.7,16.71,1.69,1.63,2.67,2.49,3.56,2.94,.66,.34,.83,.36,1.15,.71,.16,.17,.13,.51-.35,.92-.57,.49-2.41,1.1-4.98,3.06-1.75,1.33-3.51,2.65-5.44,4.24-.91,.75-1.68,1.16-2.06,.74s-.08-.94,.59-1.56c1.44-1.33,2.21-2.53,2.68-3.4,1.53-2.25,1.45-3.64-2.16-8.06-.94-1.15-8.85-9.36-9.01-9.52-.25-.24-.59-.22-1.14,.32-7.31,7.15-14.62,14.29-21.93,21.43-.59,.58-.91,1.03-.54,1.41,.88,.89,8.47,8.56,10.06,10.02,1.74,1.59,3.1,2.62,4.82,2.25,.91-.23,1.33-.17,1.62,.15,.14,.16,.18,.41-.35,.87-.53,.46-2.81,1.88-6.03,4.26-3.11,2.3-5.16,4.12-6.54,5.15-.85,.63-1.31,.74-1.58,.43-.33-.38,.2-.99,.91-1.61,.61-.53,1.55-1.5,2.23-2.37,1.05-1.48,2.07-3.23-.26-6.42-1.41-1.93-6.98-8.22-8.14-9.4-.43-.44-.8-.23-1.19,.15-2.84,2.77-4.25,4.15-6.99,6.83-2.92,2.85-10.79,10.42-12.15,11.87-2.95,3.15-4.01,4.9-3.42,6.96,.43,1.5,1.77,3.3,3.88,5.65,1.18,1.32,3.07,3.66,5.16,4.92,2.51,1.52,4.57,.66,8.37-1.58,1.02-.61,1.57-.71,1.82-.41,.37,.45-.44,1.14-.98,1.6-.63,.53-6.48,4.51-7.98,5.4-1.77,1.05-2.33,.63-4.32-1.69-3.97-4.65-5.63-6.67-7.73-9.02-2.1-2.36-4.83-5.6-7.18-8-1.46-1.49-2.87-2.49-4.41-4-.58-.57-.77-1.02-.43-1.38,.27-.29,.74-.26,1.06,.06,.39,.38,.91,.75,1.5,1.05,1.44,.85,2.94,.88,7.99-4.07,2.77-2.72,6.19-6.11,13.14-13.25,5.48-5.64,8.38-8.62,14.11-14.51h-.01Z"/><path class="c" d="M818.77,359.84c-.28-1.35,0-1.57,2.01-3.17,3.86-3.07,7.32-5.48,8.71-6.43,.9-.61,1.53-.84,1.84-.45,.31,.39,.13,.78-.54,1.31-.58,.46-1.73,1.36-2.67,2.48-5.28,5.78-3.68,11.64-.39,16.19,4.71,6.52,11.82,6.47,16.83,3.03,5.72-3.92,8.2-8.76,10.26-19.75,.39-2.37,.59-3.56,.96-5.94,1.4-9.87,5.46-19.82,13.27-26.08,9.5-7.6,22.46-5.11,29.37,4.65,2.36,3.33,3.75,5.93,4.72,8.39,.84,2.13,1.28,2.99,1.74,3.68,.46,.69,.38,1.02-.04,1.31-.42,.28-4.35,2.35-10.96,6.78-1.71,1.15-2.53,1.42-2.85,.95-.32-.47,.08-.9,.81-1.51,.94-.79,3.22-2.59,4.51-4.73,.67-1.16,3.35-6.27-2.5-14.2-4.18-5.67-11.09-7.01-17.62-2.03-5.12,3.91-6.56,8.56-8.48,21.11-.24,1.41-.36,2.11-.61,3.52-1.43,10.57-5.89,21.22-15.06,27.17-3.79,2.46-10.91,5.32-17.86,2.8-4.28-1.72-7.68-4.98-10.39-8.69-2.37-3.25-4.24-6.46-5.11-10.37l.05-.02Z"/></g><g class="e" transform="translate(416.34 909.08) scale(.53 1)"><text class="d" transform="translate(416.34 909.08) scale(.53 1)"><tspan x="0" y="0">Since 1985</tspan></text></g><path class="c" d="M222.47,560.38c0-63.98,17.04-123.98,46.82-175.72-1.75-.22-3.47-.46-5.16-.74-29.73,52.15-46.72,112.5-46.72,176.82,0,135.9,75.81,254.1,187.46,314.6,1.96-.9,4.03-1.79,6.2-2.65-112.14-59.13-188.6-176.79-188.6-312.31h0Z"/><path class="c" d="M947.88,563.02c-1.97-59.08-20.83-113.91-52.19-160.7,1.74-.26,3.46-.54,5.13-.86,31.31,47.17,50.15,102.33,52.13,161.73,4.17,125.49-67.97,237.15-177.69,296.74-1.99-.77-4.09-1.51-6.28-2.24,110.26-58.33,183.06-169.52,178.9-294.66h0Z"/></g></svg>